# Blender v2.78 (sub 0) OBJ File: 'Salami.blend'
# www.blender.org
mtllib Salami.mtl
o Cylinder
v 0.000000 -0.088219 -2.708704
v 0.000000 0.088219 -2.708704
v 0.528442 -0.088219 -2.656657
v 0.528442 0.088219 -2.656657
v 1.036576 -0.088219 -2.502516
v 1.036576 0.088219 -2.502516
v 1.504875 -0.088219 -2.252205
v 1.504875 0.088219 -2.252205
v 1.915343 -0.088219 -1.915343
v 1.915343 0.088219 -1.915343
v 2.252205 -0.088219 -1.504875
v 2.252205 0.088219 -1.504875
v 2.502516 -0.088219 -1.036576
v 2.502516 0.088219 -1.036576
v 2.656657 -0.088219 -0.528442
v 2.656657 0.088219 -0.528442
v 2.708704 -0.088219 -0.000000
v 2.708704 0.088219 -0.000000
v 2.656657 -0.088219 0.528442
v 2.656657 0.088219 0.528442
v 2.502517 -0.088219 1.036576
v 2.502517 0.088219 1.036576
v 2.252205 -0.088219 1.504875
v 2.252205 0.088219 1.504875
v 1.915343 -0.088219 1.915343
v 1.915343 0.088219 1.915343
v 1.504875 -0.088219 2.252205
v 1.504875 0.088219 2.252205
v 1.036576 -0.088219 2.502517
v 1.036576 0.088219 2.502517
v 0.528441 -0.088219 2.656657
v 0.528441 0.088219 2.656657
v -0.000001 -0.088219 2.708704
v -0.000001 0.088219 2.708704
v -0.528443 -0.088219 2.656657
v -0.528443 0.088219 2.656657
v -1.036577 -0.088219 2.502516
v -1.036577 0.088219 2.502516
v -1.504877 -0.088219 2.252204
v -1.504877 0.088219 2.252204
v -1.915344 -0.088219 1.915342
v -1.915344 0.088219 1.915342
v -2.252206 -0.088219 1.504874
v -2.252206 0.088219 1.504874
v -2.502517 -0.088219 1.036574
v -2.502517 0.088219 1.036574
v -2.656658 -0.088219 0.528440
v -2.656658 0.088219 0.528440
v -2.708704 -0.088219 -0.000003
v -2.708704 0.088219 -0.000003
v -2.656657 -0.088219 -0.528445
v -2.656657 0.088219 -0.528445
v -2.502515 -0.088219 -1.036579
v -2.502515 0.088219 -1.036579
v -2.252203 -0.088219 -1.504878
v -2.252203 0.088219 -1.504878
v -1.915341 -0.088219 -1.915346
v -1.915341 0.088219 -1.915346
v -1.504872 -0.088219 -2.252207
v -1.504872 0.088219 -2.252207
v -1.036573 -0.088219 -2.502518
v -1.036573 0.088219 -2.502518
v -0.528438 -0.088219 -2.656658
v -0.528438 0.088219 -2.656658
vt 0.7952 0.4094
vt 0.7952 0.5384
vt 0.8252 0.5384
vt 0.8252 0.4094
vt 0.8553 0.5384
vt 0.8553 0.4094
vt 0.8854 0.5384
vt 0.8854 0.4094
vt 0.9155 0.5384
vt 0.9155 0.4094
vt 0.9455 0.5384
vt 0.9455 0.4094
vt 0.9756 0.5384
vt 0.9756 0.4094
vt 0.0132 0.4094
vt 0.0132 0.5384
vt 0.0433 0.5384
vt 0.0433 0.4094
vt 0.0734 0.5384
vt 0.0734 0.4094
vt 0.1035 0.5384
vt 0.1035 0.4094
vt 0.1335 0.5384
vt 0.1335 0.4094
vt 0.1636 0.5384
vt 0.1636 0.4094
vt 0.1937 0.5384
vt 0.1937 0.4094
vt 0.2238 0.5384
vt 0.2238 0.4094
vt 0.2538 0.5384
vt 0.2538 0.4094
vt 0.2839 0.5384
vt 0.2839 0.4094
vt 0.3140 0.5384
vt 0.3140 0.4094
vt 0.3441 0.5384
vt 0.3441 0.4094
vt 0.3741 0.5384
vt 0.3741 0.4094
vt 0.4042 0.5384
vt 0.4042 0.4094
vt 0.4343 0.5384
vt 0.4343 0.4094
vt 0.4644 0.5384
vt 0.4644 0.4094
vt 0.4944 0.5384
vt 0.4944 0.4094
vt 0.5245 0.5384
vt 0.5245 0.4094
vt 0.5546 0.5384
vt 0.5546 0.4094
vt 0.5846 0.5384
vt 0.5846 0.4094
vt 0.6147 0.5384
vt 0.6147 0.4094
vt 0.6448 0.5384
vt 0.6448 0.4094
vt 0.6749 0.5384
vt 0.6749 0.4094
vt 0.7049 0.5384
vt 0.7049 0.4094
vt 0.7350 0.5384
vt 0.7350 0.4094
vt 0.5404 0.9789
vt 0.4481 0.9789
vt 0.3575 0.9608
vt 0.2722 0.9253
vt 0.1954 0.8739
vt 0.1301 0.8083
vt 0.0788 0.7313
vt 0.0434 0.6457
vt 0.0254 0.5548
vt 0.0254 0.4622
vt 0.0434 0.3713
vt 0.0788 0.2857
vt 0.1301 0.2087
vt 0.1954 0.1432
vt 0.2722 0.0917
vt 0.3575 0.0562
vt 0.4481 0.0382
vt 0.5404 0.0382
vt 0.6310 0.0562
vt 0.7163 0.0917
vt 0.7931 0.1432
vt 0.8584 0.2087
vt 0.9097 0.2857
vt 0.9451 0.3713
vt 0.9631 0.4622
vt 0.9631 0.5548
vt 0.9451 0.6457
vt 0.9097 0.7313
vt 0.8584 0.8083
vt 0.7931 0.8739
vt 0.7163 0.9253
vt 0.6310 0.9608
vt 0.7651 0.5384
vt 0.7651 0.4094
vt 0.4521 0.0413
vt 0.5432 0.0413
vt 0.6325 0.0591
vt 0.7167 0.0941
vt 0.7924 0.1448
vt 0.8568 0.2095
vt 0.9074 0.2854
vt 0.9422 0.3698
vt 0.9600 0.4594
vt 0.9600 0.5508
vt 0.9422 0.6404
vt 0.9074 0.7248
vt 0.8568 0.8008
vt 0.7924 0.8654
vt 0.7167 0.9162
vt 0.6325 0.9511
vt 0.5432 0.9690
vt 0.4521 0.9690
vt 0.3628 0.9511
vt 0.2786 0.9162
vt 0.2029 0.8654
vt 0.1385 0.8008
vt 0.0879 0.7248
vt 0.0531 0.6404
vt 0.0353 0.5508
vt 0.0353 0.4594
vt 0.0531 0.3698
vt 0.0879 0.2854
vt 0.1385 0.2095
vt 0.2029 0.1448
vt 0.2786 0.0941
vt 0.3628 0.0591
vn 0.0980 0.0000 -0.9952
vn 0.2903 0.0000 -0.9569
vn 0.4714 0.0000 -0.8819
vn 0.6344 0.0000 -0.7730
vn 0.7730 0.0000 -0.6344
vn 0.8819 0.0000 -0.4714
vn 0.9569 0.0000 -0.2903
vn 0.9952 0.0000 -0.0980
vn 0.9952 0.0000 0.0980
vn 0.9569 0.0000 0.2903
vn 0.8819 0.0000 0.4714
vn 0.7730 0.0000 0.6344
vn 0.6344 0.0000 0.7730
vn 0.4714 0.0000 0.8819
vn 0.2903 0.0000 0.9569
vn 0.0980 0.0000 0.9952
vn -0.0980 0.0000 0.9952
vn -0.2903 0.0000 0.9569
vn -0.4714 0.0000 0.8819
vn -0.6344 0.0000 0.7730
vn -0.7730 0.0000 0.6344
vn -0.8819 0.0000 0.4714
vn -0.9569 0.0000 0.2903
vn -0.9952 0.0000 0.0980
vn -0.9952 0.0000 -0.0980
vn -0.9569 0.0000 -0.2903
vn -0.8819 0.0000 -0.4714
vn -0.7730 0.0000 -0.6344
vn -0.6344 0.0000 -0.7730
vn -0.4714 0.0000 -0.8819
vn 0.0000 1.0000 -0.0000
vn -0.2903 0.0000 -0.9569
vn -0.0980 0.0000 -0.9952
vn 0.0000 -1.0000 0.0000
usemtl Material.001
s off
f 1/1/1 2/2/1 4/3/1 3/4/1
f 3/4/2 4/3/2 6/5/2 5/6/2
f 5/6/3 6/5/3 8/7/3 7/8/3
f 7/8/4 8/7/4 10/9/4 9/10/4
f 9/10/5 10/9/5 12/11/5 11/12/5
f 11/12/6 12/11/6 14/13/6 13/14/6
f 13/15/7 14/16/7 16/17/7 15/18/7
f 15/18/8 16/17/8 18/19/8 17/20/8
f 17/20/9 18/19/9 20/21/9 19/22/9
f 19/22/10 20/21/10 22/23/10 21/24/10
f 21/24/11 22/23/11 24/25/11 23/26/11
f 23/26/12 24/25/12 26/27/12 25/28/12
f 25/28/13 26/27/13 28/29/13 27/30/13
f 27/30/14 28/29/14 30/31/14 29/32/14
f 29/32/15 30/31/15 32/33/15 31/34/15
f 31/34/16 32/33/16 34/35/16 33/36/16
f 33/36/17 34/35/17 36/37/17 35/38/17
f 35/38/18 36/37/18 38/39/18 37/40/18
f 37/40/19 38/39/19 40/41/19 39/42/19
f 39/42/20 40/41/20 42/43/20 41/44/20
f 41/44/21 42/43/21 44/45/21 43/46/21
f 43/46/22 44/45/22 46/47/22 45/48/22
f 45/48/23 46/47/23 48/49/23 47/50/23
f 47/50/24 48/49/24 50/51/24 49/52/24
f 49/52/25 50/51/25 52/53/25 51/54/25
f 51/54/26 52/53/26 54/55/26 53/56/26
f 53/56/27 54/55/27 56/57/27 55/58/27
f 55/58/28 56/57/28 58/59/28 57/60/28
f 57/60/29 58/59/29 60/61/29 59/62/29
f 59/62/30 60/61/30 62/63/30 61/64/30
f 4/65/31 2/66/31 64/67/31 62/68/31 60/69/31 58/70/31 56/71/31 54/72/31 52/73/31 50/74/31 48/75/31 46/76/31 44/77/31 42/78/31 40/79/31 38/80/31 36/81/31 34/82/31 32/83/31 30/84/31 28/85/31 26/86/31 24/87/31 22/88/31 20/89/31 18/90/31 16/91/31 14/92/31 12/93/31 10/94/31 8/95/31 6/96/31
f 61/64/32 62/63/32 64/97/32 63/98/32
f 63/98/33 64/97/33 2/2/33 1/1/33
f 1/99/34 3/100/34 5/101/34 7/102/34 9/103/34 11/104/34 13/105/34 15/106/34 17/107/34 19/108/34 21/109/34 23/110/34 25/111/34 27/112/34 29/113/34 31/114/34 33/115/34 35/116/34 37/117/34 39/118/34 41/119/34 43/120/34 45/121/34 47/122/34 49/123/34 51/124/34 53/125/34 55/126/34 57/127/34 59/128/34 61/129/34 63/130/34
