# Blender v2.78 (sub 0) OBJ File: 'Zahnstocher.blend'
# www.blender.org
mtllib Zahnstocher.mtl
o Cylinder
v 0.008540 0.000000 -0.020618
v 0.020618 0.000000 -0.008540
v 0.020618 0.000000 0.008540
v 0.008540 0.000000 0.020618
v -0.008540 0.000000 0.020618
v -0.020618 0.000000 0.008540
v -0.000000 -1.252719 -0.000000
v -0.020618 0.000000 -0.008540
v -0.008540 0.000000 -0.020618
v -0.000000 1.252719 -0.000000
v 0.006405 0.939539 -0.015464
v 0.006405 -0.939539 -0.015464
v -0.000000 0.000000 -0.022387
v 0.015830 0.000000 -0.015830
v 0.015464 0.939539 -0.006405
v 0.015464 -0.939539 -0.006405
v 0.022387 0.000000 0.000000
v 0.015464 0.939539 0.006405
v 0.015464 -0.939539 0.006405
v 0.015830 0.000000 0.015830
v 0.006405 0.939539 0.015464
v 0.006405 -0.939539 0.015464
v -0.000000 0.000000 0.022387
v -0.006405 0.939539 0.015464
v -0.006405 -0.939539 0.015464
v -0.015830 0.000000 0.015830
v -0.015464 0.939539 0.006405
v -0.015464 -0.939539 0.006405
v -0.022387 0.000000 -0.000000
v -0.015464 0.939539 -0.006405
v -0.015464 -0.939539 -0.006405
v -0.015830 0.000000 -0.015830
v -0.006405 0.939539 -0.015464
v -0.006405 -0.939539 -0.015464
v -0.000000 0.695955 -0.019114
v -0.000000 -0.695955 -0.019114
v 0.013515 0.695955 -0.013515
v 0.013515 -0.695955 -0.013515
v 0.019114 0.695955 0.000000
v 0.019114 -0.695955 0.000000
v 0.013515 0.695955 0.013515
v 0.013515 -0.695955 0.013515
v -0.000000 0.695955 0.019114
v -0.000000 -0.695955 0.019114
v -0.013515 0.695955 0.013515
v -0.013515 -0.695955 0.013515
v -0.019114 0.695955 -0.000000
v -0.019114 -0.695955 -0.000000
v -0.013515 0.695955 -0.013515
v -0.013515 -0.695955 -0.013515
vn -0.2631 -0.0053 0.9647
vn -0.2631 0.0053 0.9647
vn -0.4961 0.0053 0.8682
vn -0.4961 -0.0053 0.8682
vn -0.8682 -0.0053 0.4961
vn -0.8682 0.0053 0.4961
vn -0.9647 0.0053 0.2631
vn -0.9647 -0.0053 0.2631
vn -0.9647 -0.0053 -0.2631
vn -0.9647 0.0053 -0.2631
vn -0.8682 0.0053 -0.4961
vn -0.8682 -0.0053 -0.4961
vn -0.4961 -0.0053 -0.8682
vn -0.4961 0.0053 -0.8682
vn -0.2631 0.0053 -0.9647
vn -0.2631 -0.0053 -0.9647
vn 0.2631 -0.0053 -0.9647
vn 0.2631 0.0053 -0.9647
vn 0.4961 0.0053 -0.8682
vn 0.4961 -0.0053 -0.8682
vn 0.8682 -0.0053 -0.4961
vn 0.8682 0.0053 -0.4961
vn 0.9647 0.0053 -0.2631
vn 0.9647 -0.0053 -0.2631
vn -0.7067 0.0343 0.7067
vn 0.0000 0.0343 0.9994
vn 0.7067 0.0343 0.7067
vn 0.9994 0.0343 0.0000
vn 0.7067 0.0343 -0.7067
vn 0.0000 0.0343 -0.9994
vn -0.7067 0.0343 -0.7067
vn -0.9994 0.0343 0.0000
vn 0.9647 -0.0053 0.2631
vn 0.9647 0.0053 0.2631
vn 0.8682 0.0053 0.4961
vn 0.8682 -0.0053 0.4961
vn 0.4961 -0.0053 0.8682
vn 0.4961 0.0053 0.8682
vn 0.2631 0.0053 0.9647
vn 0.2631 -0.0053 0.9647
vn 0.0000 -0.0343 0.9994
vn -0.7067 -0.0343 0.7067
vn -0.9994 -0.0343 0.0000
vn -0.7067 -0.0343 -0.7067
vn 0.0000 -0.0343 -0.9994
vn 0.7067 -0.0343 -0.7067
vn 0.9994 -0.0343 0.0000
vn 0.7067 -0.0343 0.7067
usemtl ZahnstocherGrund
s off
f 1//1 11//1 35//1 13//1
f 1//2 13//2 36//2 12//2
f 1//3 12//3 38//3 14//3
f 1//4 14//4 37//4 11//4
f 2//5 15//5 37//5 14//5
f 2//6 14//6 38//6 16//6
f 2//7 16//7 40//7 17//7
f 2//8 17//8 39//8 15//8
f 3//9 18//9 39//9 17//9
f 3//10 17//10 40//10 19//10
f 3//11 19//11 42//11 20//11
f 3//12 20//12 41//12 18//12
f 4//13 21//13 41//13 20//13
f 4//14 20//14 42//14 22//14
f 4//15 22//15 44//15 23//15
f 4//16 23//16 43//16 21//16
f 5//17 24//17 43//17 23//17
f 5//18 23//18 44//18 25//18
f 5//19 25//19 46//19 26//19
f 5//20 26//20 45//20 24//20
f 6//21 27//21 45//21 26//21
f 6//22 26//22 46//22 28//22
f 6//23 28//23 48//23 29//23
f 6//24 29//24 47//24 27//24
f 7//25 16//25 38//25 12//25
f 7//26 12//26 36//26 34//26
f 7//27 34//27 50//27 31//27
f 7//28 31//28 48//28 28//28
f 7//29 28//29 46//29 25//29
f 7//30 25//30 44//30 22//30
f 7//31 22//31 42//31 19//31
f 7//32 19//32 40//32 16//32
f 8//33 30//33 47//33 29//33
f 8//34 29//34 48//34 31//34
f 8//35 31//35 50//35 32//35
f 8//36 32//36 49//36 30//36
f 9//37 33//37 49//37 32//37
f 9//38 32//38 50//38 34//38
f 9//39 34//39 36//39 13//39
f 9//40 13//40 35//40 33//40
f 10//41 33//41 35//41 11//41
f 10//42 11//42 37//42 15//42
f 10//43 15//43 39//43 18//43
f 10//44 18//44 41//44 21//44
f 10//45 21//45 43//45 24//45
f 10//46 24//46 45//46 27//46
f 10//47 27//47 47//47 30//47
f 10//48 30//48 49//48 33//48
